<svg width="51" height="50" viewBox="0 0 51 50" fill="none" xmlns="http://www.w3.org/2000/svg">
<g clip-path="url(#clip0_68_18825)">
<path d="M34.3864 27.578C34.3864 32.6979 30.2299 36.8466 25.0983 36.8466C19.9666 36.8466 15.8101 32.6979 15.8101 27.578C15.8101 22.4581 25.0983 12.8298 25.0983 12.8298C25.0983 12.8298 34.3864 22.4461 34.3864 27.578ZM8.85009 34.8202C12.324 39.9281 16.188 44.4006 25.2933 44.4006C35.2762 44.4006 43.4917 36.8226 44.479 27.1104H49.6229C49.6229 28.921 46.4415 49.4006 24.7935 49.4006C9.13044 49.4006 3.58436 36.1392 3.58436 36.1392L1.54877 36.9545L3.58436 27.1104L11.1538 34.4725L8.8379 34.8082L8.85009 34.8202ZM41.6146 15.1799C38.1407 10.072 34.2767 5.59961 25.1714 5.59961C15.1885 5.59961 6.97295 13.1775 5.98563 22.8898H0.841797C0.841797 21.0792 4.02317 0.599609 25.6711 0.599609C41.3342 0.599609 46.8803 13.861 46.8803 13.861L48.9159 13.0457L46.8803 22.8898L39.3108 15.5277L41.6268 15.1919L41.6146 15.1799Z" stroke="#6BAF27" stroke-linejoin="round"/>
<path d="M21.7923 27.5781C21.7923 27.5781 21.451 30.0002 23.5353 32.0985C25.6318 34.1968 28.216 33.7652 28.216 33.7652" stroke="#6BAF27" stroke-linejoin="round"/>
</g>
<defs>
<clipPath id="clip0_68_18825">
<rect width="50" height="50" fill="white" transform="translate(0.232422)"/>
</clipPath>
</defs>
</svg>
