<svg width="51" height="50" viewBox="0 0 51 50" fill="none" xmlns="http://www.w3.org/2000/svg">
<g clip-path="url(#clip0_68_18836)">
<g clip-path="url(#clip1_68_18836)">
<path d="M20.082 46.1927C10.3203 44.2485 2.81965 36.0104 2.00516 25.8889M2.24829 20.2753C2.62515 18.0153 3.34238 15.8767 4.33922 13.8962M7.40268 9.32752C11.1834 4.95328 16.6052 2.03712 22.72 1.56325M28.7861 1.90347C38.6451 3.78682 46.2186 12.0857 47.021 22.2801M46.7778 27.8573C45.0638 37.9423 36.6636 45.7431 26.3062 46.5572M38.4749 35.7674H43.8603M26.6222 35.7674H32.8707M17.0307 35.7674H24.507M9.04382 35.7674H14.2833M38.4627 12.353H43.8481M38.8761 24.1149H45.2947M6.04114 24.1149H11.694M14.2347 24.1149H22.7321M28.9077 24.1149H37.4051M26.6222 12.353H32.8707M17.0307 12.353H24.507M9.04382 12.353H14.0766M24.507 25.9739V44.8196M24.507 3.16714V22.4016M26.3062 1.85486C29.5641 4.22424 32.0441 7.12825 34.0013 10.6641M35.5087 13.884C36.7365 16.9946 37.4051 20.3846 37.4051 23.9205C37.4051 27.4563 36.7122 31.0043 35.4357 34.1635M33.8919 37.3834C31.9225 40.895 29.479 43.7139 26.2332 46.059M22.8537 45.9739C15.9852 40.9679 11.6575 33.155 11.6575 24.0177C11.6575 14.8804 15.888 6.98245 22.8294 1.98852M7.01367 12.353C7.01367 13.3372 6.21134 14.1392 5.22665 14.1392C4.24197 14.1392 3.43964 13.3372 3.43964 12.353C3.43964 11.3688 4.24197 10.5669 5.22665 10.5669C6.21134 10.5669 7.01367 11.3688 7.01367 12.353ZM3.6463 24.0663C3.6463 25.0505 2.84396 25.8524 1.85928 25.8524C0.8746 25.8524 0.0722656 25.0505 0.0722656 24.0663C0.0722656 23.0821 0.8746 22.2801 1.85928 22.2801C2.84396 22.2801 3.6463 23.0821 3.6463 24.0663ZM48.8688 24.0663C48.8688 25.0505 48.0664 25.8524 47.0817 25.8524C46.0971 25.8524 45.2947 25.0505 45.2947 24.0663C45.2947 23.0821 46.0971 22.2801 47.0817 22.2801C48.0664 22.2801 48.8688 23.0821 48.8688 24.0663ZM36.4447 12.3166C36.4447 13.3008 35.6424 14.1027 34.6577 14.1027C33.673 14.1027 32.8707 13.3008 32.8707 12.3166C32.8707 11.3324 33.673 10.5304 34.6577 10.5304C35.6424 10.5304 36.4447 11.3324 36.4447 12.3166ZM36.4447 35.7795C36.4447 36.7637 35.6424 37.5657 34.6577 37.5657C33.673 37.5657 32.8707 36.7637 32.8707 35.7795C32.8707 34.7953 33.673 33.9934 34.6577 33.9934C35.6424 33.9934 36.4447 34.7953 36.4447 35.7795ZM26.3062 46.6179C26.3062 47.6021 25.5038 48.4041 24.5191 48.4041C23.5345 48.4041 22.7321 47.6021 22.7321 46.6179C22.7321 45.6337 23.5345 44.8318 24.5191 44.8318C25.5038 44.8318 26.3062 45.6337 26.3062 46.6179ZM26.3062 24.2121C26.3062 25.1963 25.5038 25.9982 24.5191 25.9982C23.5345 25.9982 22.7321 25.1963 22.7321 24.2121C22.7321 23.2279 23.5345 22.4259 24.5191 22.4259C25.5038 22.4259 26.3062 23.2279 26.3062 24.2121ZM26.3062 1.40529C26.3062 2.38949 25.5038 3.19144 24.5191 3.19144C23.5345 3.19144 22.7321 2.38949 22.7321 1.40529C22.7321 0.421085 23.5345 -0.380859 24.5191 -0.380859C25.5038 -0.380859 26.3062 0.421085 26.3062 1.40529Z" stroke="#E83747"/>
</g>
</g>
<defs>
<clipPath id="clip0_68_18836">
<rect width="50" height="50" fill="white" transform="translate(0.464844)"/>
</clipPath>
<clipPath id="clip1_68_18836">
<rect width="50" height="50" fill="white" transform="translate(-0.535156 -1)"/>
</clipPath>
</defs>
</svg>
