<svg width="51" height="50" viewBox="0 0 51 50" fill="none" xmlns="http://www.w3.org/2000/svg">
<g clip-path="url(#clip0_68_18849)">
<path d="M22.0967 13.9085H29.1381M22.0967 11.0628H34.5358M22.0967 8.21714H34.5358M25.4652 50.0207C25.4652 43.3474 30.8832 37.9366 37.5797 37.9366C44.2761 37.9366 49.6941 43.3474 49.6941 50.0207M1.23633 50.0007C1.23633 43.3274 6.65435 37.9165 13.3508 37.9165M13.3508 37.9165C20.0472 37.9165 25.4652 43.3274 25.4652 50.0007M13.3508 37.9165C16.8207 37.9165 19.6414 35.0909 19.6414 31.624C19.6414 28.157 16.8207 25.3514 13.3508 25.3514C9.88081 25.3514 7.06019 28.137 7.06019 31.624C7.06019 35.1109 9.88081 37.9165 13.3508 37.9165ZM15.6641 17.0348L12.6 19.4596V15.0909H10.3069C9.49526 15.0909 8.82561 14.5698 8.82561 13.9085V1.92455C8.82561 1.28327 9.47496 0.742188 10.3069 0.742188H29.2802C31.1268 0.742188 31.2688 2.44559 31.2688 3.10692M43.5253 31.644C43.5253 35.1109 40.7047 37.9366 37.2347 37.9366C33.7647 37.9366 30.9441 35.131 30.9441 31.644C30.9441 28.157 33.7647 25.3714 37.2347 25.3714C40.7047 25.3714 43.5253 28.1771 43.5253 31.644ZM37.4985 17.8965H35.3881V22.125L30.2948 17.8965H18.8703C17.9977 17.8965 17.2875 17.3354 17.2875 16.634V5.65201C17.2875 4.9506 17.9977 4.38948 18.8703 4.38948H37.4782C38.3508 4.38948 39.061 4.9506 39.061 5.65201V16.634C39.061 17.3354 38.3508 17.8965 37.4782 17.8965H37.4985Z" stroke="#0094DD" stroke-width="0.75" stroke-miterlimit="10"/>
</g>
<defs>
<clipPath id="clip0_68_18849">
<rect width="50" height="50" fill="white" transform="translate(0.464844)"/>
</clipPath>
</defs>
</svg>
