<svg xmlns="http://www.w3.org/2000/svg" viewBox="0 0 100.61 100.53"><defs><style>.cls-1{fill:#be0738;}.cls-2{fill:#fff;}</style></defs><g id="Layer_2" data-name="Layer 2"><g id="Layer_1-2" data-name="Layer 1"><path class="cls-1" d="M50.3,100.53A50.27,50.27,0,1,0,0,50.28a50.28,50.28,0,0,0,50.3,50.25"/><polygon class="cls-2" points="48.28 28.21 48.28 72.32 62.3 72.32 62.3 68.35 52.32 68.35 52.32 28.21 48.28 28.21"/><path class="cls-2" d="M34.24,40.25a6,6,0,1,0-6-6,6,6,0,0,0,6,6"/><path class="cls-2" d="M52.32,8.21c-.53,0-1.53-.06-2-.06a42.09,42.09,0,1,0,42.1,42.11V48.38H62.34v3.88H88.4c0,.08,0,.5,0,.6a38.15,38.15,0,0,1-65,24.37,38.15,38.15,0,0,1,27-65.13c.44,0,1.51,0,2,0Z"/></g></g></svg>